<?xml version="1.0" encoding="UTF-8" standalone="no"?>
<!DOCTYPE svg PUBLIC "-//W3C//DTD SVG 1.1//EN" "http://www.w3.org/Graphics/SVG/1.1/DTD/svg11.dtd">
<svg width="100%" height="100%" viewBox="0 0 122 24" version="1.1" xmlns="http://www.w3.org/2000/svg" xmlns:xlink="http://www.w3.org/1999/xlink" xml:space="preserve" xmlns:serif="http://www.serif.com/" style="fill-rule:evenodd;clip-rule:evenodd;stroke-linejoin:round;stroke-miterlimit:2;">
    <path d="M9.15,24L33.76,24L14,4.19C11.391,1.55 7.842,0.043 4.13,0L0,0L0.31,0.81L1.67,4.39L9.15,24Z" style="fill:url(#_Linear1);fill-rule:nonzero;"/>
    <path d="M1.67,4.39C4.37,9 11.44,9.48 12.21,16.64C12.243,16.932 12.47,17.167 12.76,17.21C16.968,17.869 20.931,19.621 24.25,22.29C24.272,22.299 24.298,22.299 24.32,22.29C24.349,22.299 24.381,22.299 24.41,22.29C24.458,22.24 24.458,22.16 24.41,22.11C22,19.575 19.074,17.587 15.83,16.28L14.83,15.88C14.306,15.665 13.967,15.146 13.98,14.58C14.04,12.44 19.09,12.87 19.6,11.85L19.69,11.67C18.636,10.763 17.392,10.104 16.05,9.74C16.036,10.009 16.117,10.275 16.28,10.49C16.59,10.98 15.95,11.76 15.04,10.92L15,10.85C8.14,4.59 3,7.83 0.31,0.81L1.67,4.39Z" style="fill:white;fill-rule:nonzero;"/>
    <path d="M18.1,11.55C17.353,11.539 16.665,11.136 16.29,10.49C16.338,10.572 16.364,10.665 16.364,10.76C16.364,11.051 16.125,11.29 15.834,11.29C15.829,11.29 15.825,11.29 15.82,11.29L15.82,13C16.56,12.78 17.4,12.65 18.1,12.5L18.1,11.55Z" style="fill:url(#_Linear2);fill-rule:nonzero;"/>
    <path d="M13.61,17.36C17.504,18.114 21.157,19.807 24.25,22.29C17.1,16.18 13.84,17.28 13.61,17.36Z" style="fill:url(#_Linear3);fill-rule:nonzero;"/>
    <path d="M3.11,4.71C1.8,3.727 0.822,2.366 0.31,0.81L1.67,4.39C4.37,9 11.44,9.48 12.21,16.63C11.43,7.5 7.42,8.87 3.11,4.71Z" style="fill:url(#_Linear4);fill-rule:nonzero;"/>
    <path d="M36.26,19.59C31.4,19.59 28.31,17.06 28.31,13.89C28.31,10.72 31.58,8.19 36.4,8.19C41.22,8.19 44.5,10.67 44.5,13.76C44.49,15.135 43.824,16.425 42.71,17.23L45.57,17.23L44.89,18.41C44.496,19.197 43.657,19.667 42.78,19.59L36.26,19.59ZM36.4,17C39.06,17 41.29,15.68 41.29,13.88C41.29,12.08 39.06,10.76 36.4,10.76C33.74,10.76 31.51,12.08 31.51,13.88C31.51,15.68 33.74,17 36.4,17Z" style="fill:rgb(50,50,50);fill-rule:nonzero;"/>
    <path d="M57.52,17.67L49.86,17.67L48.77,19.59L45.6,19.59L50.91,10.39C51.327,9.56 52.203,9.055 53.13,9.11L54.32,9.11C55.25,9.054 56.129,9.558 56.55,10.39L61.86,19.59L58.62,19.59L57.52,17.67ZM51.16,15.36L56.22,15.36L53.88,11.18C53.82,11.08 53.78,11.05 53.69,11.05C53.6,11.05 53.57,11.05 53.51,11.18L51.16,15.36Z" style="fill:rgb(50,50,50);fill-rule:nonzero;"/>
    <path d="M77,9.11L77,19.59L74.15,19.59L65.81,12.65L65.81,19.59L63,19.59L63,9.11L64.77,9.11C65.466,9.069 66.15,9.315 66.66,9.79L74.15,16L74.15,9.11L77,9.11Z" style="fill:rgb(50,50,50);fill-rule:nonzero;"/>
    <path d="M87.08,11.47L87.08,19.59L84.24,19.59L84.24,11.47L78.42,11.47L78.42,9.11L92.9,9.11L92.9,11.47L87.08,11.47Z" style="fill:rgb(50,50,50);fill-rule:nonzero;"/>
    <path d="M102.35,17.67L94.68,17.67L93.59,19.59L90.42,19.59L95.73,10.39C96.156,9.544 97.056,9.037 98,9.11L99.18,9.11C100.11,9.054 100.989,9.558 101.41,10.39L106.72,19.59L103.48,19.59L102.35,17.67ZM96,15.36L101.07,15.36L98.7,11.18C98.64,11.08 98.6,11.05 98.52,11.05C98.44,11.05 98.39,11.05 98.33,11.18L96,15.36Z" style="fill:rgb(50,50,50);fill-rule:nonzero;"/>
    <path d="M107.66,18.84L107.39,18.76L108.11,16.48C110.115,17.098 112.202,17.408 114.3,17.4C117.53,17.4 118.3,17.02 118.3,16.62C118.3,16.45 118.18,16.32 117.93,16.24C116.657,15.93 115.368,15.686 114.07,15.51C112.296,15.338 110.549,14.948 108.87,14.35C107.944,14.011 107.323,13.126 107.32,12.14C107.329,11.373 107.7,10.653 108.32,10.2C109.877,9.273 111.684,8.854 113.49,9C115.995,8.968 118.495,9.25 120.93,9.84L121.15,9.91L120.55,12.13C118.43,11.626 116.259,11.361 114.08,11.34C113.046,11.29 112.011,11.377 111,11.6C110.69,11.7 110.57,11.84 110.57,12.01C110.57,12.18 110.66,12.3 110.97,12.4C112.204,12.712 113.457,12.946 114.72,13.1C116.418,13.28 118.093,13.632 119.72,14.15C120.768,14.436 121.52,15.366 121.58,16.45C121.58,17.76 120.58,18.72 118.82,19.25C117.47,19.607 116.076,19.775 114.68,19.75C112.309,19.777 109.946,19.471 107.66,18.84Z" style="fill:rgb(50,50,50);fill-rule:nonzero;"/>
    <defs>
        <linearGradient id="_Linear1" x1="0" y1="0" x2="1" y2="0" gradientUnits="userSpaceOnUse" gradientTransform="matrix(-16.41,-23.98,23.98,-16.41,21.39,23.91)"><stop offset="0" style="stop-color:rgb(190,0,0);stop-opacity:1"/><stop offset="0.39" style="stop-color:rgb(222,0,0);stop-opacity:1"/><stop offset="0.77" style="stop-color:rgb(246,0,0);stop-opacity:1"/><stop offset="1" style="stop-color:rgb(255,0,0);stop-opacity:1"/></linearGradient>
        <linearGradient id="_Linear2" x1="0" y1="0" x2="1" y2="0" gradientUnits="userSpaceOnUse" gradientTransform="matrix(0.22,-2.53,2.53,0.22,16.86,13.09)"><stop offset="0" style="stop-color:white;stop-opacity:0"/><stop offset="0.65" style="stop-color:white;stop-opacity:0"/><stop offset="0.69" style="stop-color:rgb(237,237,237);stop-opacity:0.23"/><stop offset="0.76" style="stop-color:rgb(215,215,215);stop-opacity:0.5"/><stop offset="0.81" style="stop-color:rgb(198,198,198);stop-opacity:0.72"/><stop offset="0.87" style="stop-color:rgb(185,185,185);stop-opacity:0.87"/><stop offset="0.91" style="stop-color:rgb(178,178,178);stop-opacity:0.97"/><stop offset="0.95" style="stop-color:rgb(175,175,175);stop-opacity:1"/><stop offset="1" style="stop-color:rgb(175,175,175);stop-opacity:1"/></linearGradient>
        <linearGradient id="_Linear3" x1="0" y1="0" x2="1" y2="0" gradientUnits="userSpaceOnUse" gradientTransform="matrix(10.64,0,0,10.64,13.61,19.76)"><stop offset="0" style="stop-color:white;stop-opacity:0"/><stop offset="0.07" style="stop-color:rgb(243,243,243);stop-opacity:0.15"/><stop offset="0.21" style="stop-color:rgb(222,222,222);stop-opacity:0.41"/><stop offset="0.35" style="stop-color:rgb(205,205,205);stop-opacity:0.62"/><stop offset="0.49" style="stop-color:rgb(192,192,192);stop-opacity:0.79"/><stop offset="0.63" style="stop-color:rgb(183,183,183);stop-opacity:0.91"/><stop offset="0.77" style="stop-color:rgb(177,177,177);stop-opacity:0.98"/><stop offset="0.9" style="stop-color:rgb(175,175,175);stop-opacity:1"/><stop offset="1" style="stop-color:rgb(175,175,175);stop-opacity:1"/></linearGradient>
        <linearGradient id="_Linear4" x1="0" y1="0" x2="1" y2="0" gradientUnits="userSpaceOnUse" gradientTransform="matrix(11.9,0,0,11.9,0.31,8.72)"><stop offset="0" style="stop-color:white;stop-opacity:0"/><stop offset="0.25" style="stop-color:white;stop-opacity:0"/><stop offset="0.36" style="stop-color:rgb(247,247,247);stop-opacity:0.11"/><stop offset="0.58" style="stop-color:rgb(225,225,225);stop-opacity:0.38"/><stop offset="0.88" style="stop-color:rgb(190,190,190);stop-opacity:0.82"/><stop offset="1" style="stop-color:rgb(175,175,175);stop-opacity:1"/></linearGradient>
    </defs>
</svg>
