<?xml version="1.0" encoding="utf-8"?>
<!-- Generator: Adobe Illustrator 23.0.3, SVG Export Plug-In . SVG Version: 6.00 Build 0)  -->
<svg version="1.1" id="Logo" xmlns="http://www.w3.org/2000/svg" xmlns:xlink="http://www.w3.org/1999/xlink" x="0px" y="0px"
	 viewBox="0 0 489.1 43.8" style="enable-background:new 0 0 489.1 43.8;" xml:space="preserve">
<style type="text/css">
	.st0{fill:#FF1C33;}
</style>
<title>SCG_Logo_horiz_Red_RGB</title>
<path class="st0" d="M390.4,43.8c-12.1,0-21.9-9.8-21.9-21.9S378.3,0,390.4,0s21.9,9.8,21.9,21.9l0,0
	C412.3,34,402.5,43.8,390.4,43.8z M390.4,6.8c-8.3,0-15.1,6.8-15.1,15.1S382.1,37,390.4,37c8.3,0,15.1-6.8,15.1-15.1
	C405.5,13.6,398.7,6.8,390.4,6.8z"/>
<path class="st0" d="M92.7,4.9l-3.1-4.4h20.8v6.8H97.3C95.5,7.3,93.8,6.4,92.7,4.9z M87.5,25.3h20.8v-6.8H87.5V0.4h-6.8v43h29.8
	v-6.9H87.5L87.5,25.3z"/>
<path class="st0" d="M247.2,4.8l-3.1-4.4H265v6.8h-13.1C250,7.2,248.3,6.4,247.2,4.8z M242,25.3h20.8v-6.8H242V0.4h-6.8v43H265v-6.9
	h-23L242,25.3z"/>
<polygon class="st0" points="145.2,30.9 123.6,0.4 117.2,0.4 117.2,43.4 124,43.4 124,12.9 145.6,43.4 152,43.4 152,0.4 145.2,0.4 
	"/>
<path class="st0" d="M170.3,7.2v36.2h6.8V7.2h12.8V0.4h-35.1l3.1,4.4c1.1,1.5,2.8,2.4,4.6,2.4L170.3,7.2z"/>
<path class="st0" d="M58.7,37c-8.3,0-15.1-6.7-15.1-15.1c0-8.3,6.7-15.1,15.1-15.1c4.9,0,9.4,2.3,12.3,6.3L75,7.3
	c-8.1-9-21.9-9.8-30.9-1.7s-9.8,21.9-1.7,30.9s21.9,9.8,30.9,1.7c0.6-0.5,1.2-1.1,1.7-1.7l-4.1-5.8C68.1,34.7,63.5,37,58.7,37z"/>
<path class="st0" d="M343.9,4.9l-3.1-4.4h11.6c5.4,0,10.2,3.5,11.9,8.7c2,6.6-1.6,13.6-8.2,15.6c-0.5,0.2-1,0.3-1.5,0.4l0,0l13,18.3
	h-8.4l-12.8-18h-7.7v18.1h-6.8v-43h6.8v18.1h13.7c3.1,0,5.6-2.5,5.6-5.6c0-0.2,0-0.4,0-0.6c-0.4-2.9-2.9-5.1-5.9-5.1h-3.6
	C346.7,7.3,345,6.4,343.9,4.9z"/>
<path class="st0" d="M206.8,4.9l-3.1-4.4h11.6c5.4,0,10.3,3.5,11.9,8.7c2,6.6-1.6,13.6-8.2,15.6c-0.5,0.2-1,0.3-1.5,0.4l0,0l13,18.3
	H222l-12.8-18h-7.7v18.1h-6.8v-43h6.8v18.1h13.7c3.1,0,5.6-2.5,5.6-5.7c0-0.2,0-0.4,0-0.5c-0.4-2.9-2.9-5.1-5.9-5.1h-3.6
	C209.5,7.2,207.8,6.3,206.8,4.9z"/>
<path class="st0" d="M468.1,4.9L465,0.4h11.6c6.9,0,12.5,5.6,12.5,12.5s-5.6,12.5-12.5,12.5h-13.7l0,0v18.1h-6.8v-43h6.8v18.1h13.7
	c3.1,0,5.6-2.5,5.6-5.6c0-0.2,0-0.4,0-0.6c-0.4-2.9-2.9-5.1-5.9-5.1h-3.6C470.9,7.2,469.2,6.4,468.1,4.9z"/>
<path class="st0" d="M321.9,18.5h-17.7l3.2,4.4c1.1,1.5,2.8,2.4,4.6,2.4h7.8c-1.9,8.1-10,13.2-18.1,11.3c-8.1-1.9-13.2-10-11.3-18.1
	s10-13.2,18.1-11.3c3.6,0.8,6.7,2.9,8.8,5.9l4.1-5.8c-8.1-9-21.9-9.8-30.9-1.7s-9.8,21.9-1.7,30.9s21.9,9.8,30.9,1.7
	c3.8-3.4,6.2-7.9,7-12.9L321.9,18.5z"/>
<path class="st0" d="M28.7,22.2c-3.3-2.5-6.9-3.6-10.5-4.6c-2.3-0.6-4.6-1.4-6.7-2.5c-1.8-1-2.7-2.1-2.8-3.5c-0.1-2.2,2-3.4,2.6-3.8
	c3.6-1.8,8.8-1,11.9,0.6c1.8,1,3.5,2.3,5,3.8l4-5.6c-1.8-1.6-3.7-3-5.8-4.2C21.7,0,14.3-1.2,8.3,1.8C4.4,3.6,1.9,7.6,2,11.9
	c0.2,3.8,2.4,7,6.3,9.2c2.5,1.3,5.2,2.3,8,3c3.1,0.9,6,1.8,8.3,3.5c1.6,1.1,2.2,3.2,1.6,5c-0.8,2.2-3.3,4.5-8.4,4.4S8.1,34.6,4,30.2
	l-4,5.6c5.2,5.1,11.2,7.8,17.7,8h0.4c8.4,0,13-4.6,14.5-9C34.2,30.2,32.7,25.1,28.7,22.2z"/>
<path class="st0" d="M443,0.5v26.6c0.1,5.1-3.8,9.4-8.9,9.9c-5.3,0.4-9.9-3.6-10.2-8.9c0-0.2,0-0.4,0-0.6v-27h-6.8v27
	c0,8.9,7.2,16.2,16.1,16.4c9.2,0.2,16.7-7.7,16.7-16.8V0.5H443z"/>
</svg>
