<?xml version="1.0" encoding="UTF-8" standalone="no"?>
<!DOCTYPE svg PUBLIC "-//W3C//DTD SVG 1.1//EN" "http://www.w3.org/Graphics/SVG/1.1/DTD/svg11.dtd">
<svg width="100%" height="100%" viewBox="0 0 75 24" version="1.1" xmlns="http://www.w3.org/2000/svg" xmlns:xlink="http://www.w3.org/1999/xlink" xml:space="preserve" xmlns:serif="http://www.serif.com/" style="fill-rule:evenodd;clip-rule:evenodd;stroke-linejoin:round;stroke-miterlimit:2;">
    <g transform="matrix(1,0,0,1,2.92793e-05,-0.0733622)">
        <g id="Symbols">
            <g id="Westfield-Logo-FINAL">
                <g id="Westfield-Logo">
                    <path id="Fill-10" d="M74.896,6.81C73.289,6.75 71.505,6.929 70.315,8.181C69.661,9.433 68.292,14.262 68.292,14.262C67.876,13.666 64.604,12.95 62.76,15.454C62.522,15.931 61.154,21.416 61.154,21.416C60.678,21.714 59.488,22.191 59.31,22.191C59.012,22.071 58.893,21.833 58.953,21.535C60.143,17.362 61.035,13.129 62.403,9.016C62.939,8.002 64.069,7.525 65.14,7.406L65.08,6.87C63.474,6.81 61.689,6.989 60.499,8.241C59.607,9.731 56.633,21.893 56.633,21.893C56.514,22.906 57.585,24.039 58.298,23.919C59.369,23.443 60.321,22.846 61.273,22.25C61.57,22.668 62.106,23.264 62.582,23.562C63.831,24.456 66.389,22.846 66.389,22.846C66.746,23.383 67.281,23.979 68.233,23.8C68.947,23.562 71.802,21.714 71.802,21.714L71.445,21.118C71.445,21.118 69.958,22.071 69.066,22.191C69.066,22.191 68.53,22.131 68.709,21.535L72.219,9.016C72.754,8.002 73.884,7.525 74.955,7.406L74.896,6.81ZM67.876,16.17L66.627,20.7C66.567,20.998 66.448,21.058 66.329,21.177C64.842,22.369 63.057,22.846 63.712,20.283C63.712,20.283 64.783,16.11 64.961,15.812C65.913,14.56 67.995,14.381 67.876,16.17Z"/>
                    <path id="Fill-13" d="M56.871,14.083C56.157,13.368 54.551,13.785 53.48,14.023C52.409,14.381 51.219,14.739 50.684,15.991C50.268,17.421 49.554,20.045 49.197,21.833C49.197,22.31 50.684,23.86 51.874,23.92C52.231,24.039 55.74,21.773 55.74,21.773L55.384,21.118C55.384,21.118 53.956,22.012 53.123,22.131L53.063,22.131C52.588,22.071 51.933,21.654 51.755,21.237C51.695,21.118 52.171,19.329 52.171,19.329C52.171,19.329 55.562,19.508 56.573,18.196C57.168,17.004 57.704,14.977 56.871,14.083M54.967,16.885C54.491,18.316 52.707,18.137 52.469,18.077C52.409,18.077 52.469,17.958 52.469,17.958L52.885,16.289C53.182,15.335 54.372,14.739 54.848,14.858C55.621,15.216 54.967,16.885 54.967,16.885"/>
                    <path id="Fill-4" d="M47.293,10.387C47.234,10.566 47.234,10.685 47.174,10.864C47.055,11.4 46.936,11.877 46.936,11.877L49.137,11.877C49.137,11.877 49.256,11.341 49.435,10.744C49.613,10.089 49.792,9.373 49.792,9.373C50.089,8.241 49.316,6.333 47.531,6.631C46.877,6.75 46.282,7.048 45.687,7.406C44.854,7.883 44.081,8.539 43.307,9.195L41.999,13.725L38.965,13.725C39.619,11.281 40.036,11.043 38.905,9.671L37.24,10.446C37.478,10.983 37.359,11.341 37.299,11.758C37.121,12.414 36.704,13.725 36.704,13.725L35.514,13.725L35.158,14.858L36.347,14.858L34.503,22.429C34.563,22.787 35.336,23.86 36.288,23.92L39.024,22.191L38.667,21.594C37.061,22.668 36.883,21.893 36.883,21.594C37.478,19.389 38.548,14.918 38.548,14.918L41.225,14.918C41.225,14.918 41.701,14.858 41.582,15.275L39.5,23.741L41.761,23.741L44.021,14.918L45.508,14.918C45.925,14.977 46.222,15.096 46.103,15.633C46.103,15.633 44.438,22.429 44.438,22.489C44.497,22.846 45.27,23.92 46.222,23.979L48.959,22.25L48.602,21.654C47.888,22.131 47.472,22.25 47.174,22.191L47.055,22.191C46.817,22.071 46.758,21.833 46.758,21.654C47.353,19.448 48.721,13.844 48.721,13.844L44.259,13.844L45.39,9.612C45.627,8.956 46.46,8.42 47.055,8.479C47.71,8.598 47.591,9.433 47.353,10.327L47.293,10.387"/>
                    <path id="Fill-8" d="M35.039,15.812C34.979,15.693 34.92,15.573 34.86,15.514C34.325,14.441 33.67,13.964 33.016,13.785L32.897,13.785C32.719,13.725 32.54,13.725 32.362,13.725C31.053,13.725 29.09,14.56 28.614,15.871C28.376,16.527 27.959,17.719 28.078,18.435C28.078,18.494 28.078,18.614 28.138,18.673C28.197,18.852 28.376,19.031 28.554,19.21C29.03,19.568 29.804,19.746 30.517,19.925L30.577,19.925C30.636,19.925 30.696,19.985 30.755,19.985C31.053,20.104 31.231,20.283 31.291,20.521C31.35,20.939 31.112,21.714 30.815,22.191C30.101,23.383 29.209,22.668 28.316,20.82C28.257,20.879 26.71,21.773 26.651,21.833C26.71,21.952 26.77,22.071 26.829,22.131C27.365,23.204 27.959,23.681 28.673,23.86L28.792,23.86C28.971,23.92 29.149,23.92 29.328,23.92C30.636,23.92 32.599,23.085 33.075,21.773C33.313,21.118 33.67,19.925 33.611,19.27C33.611,19.21 33.551,19.091 33.551,19.031C33.492,18.852 33.313,18.673 33.135,18.554C32.659,18.196 31.886,18.018 31.172,17.779C31.112,17.779 31.053,17.719 30.993,17.719C30.696,17.6 30.458,17.421 30.458,17.183C30.398,16.766 30.636,15.991 30.874,15.514C31.588,14.321 32.481,15.037 33.373,16.885C33.432,16.825 34.979,15.871 35.039,15.812"/>
                    <path id="Fill-15" d="M27.305,14.083C26.591,13.368 24.926,13.785 23.914,14.023C22.843,14.381 21.654,14.739 21.118,15.991C20.702,17.421 20.048,20.045 19.631,21.833C19.631,22.31 21.118,23.86 22.249,23.92C22.606,24.039 26.115,21.773 26.115,21.773L25.758,21.118C25.758,21.118 24.331,22.012 23.438,22.131L23.379,22.131C22.903,22.071 22.249,21.654 22.07,21.237C22.011,21.118 22.487,19.329 22.487,19.329C22.487,19.329 25.877,19.508 26.889,18.196C27.662,17.004 28.138,14.977 27.305,14.083M25.461,16.885C24.985,18.316 23.2,18.137 22.962,18.077C22.903,18.077 22.962,17.958 22.962,17.958L23.379,16.289C23.676,15.335 24.807,14.739 25.342,14.858C26.115,15.216 25.461,16.885 25.461,16.885"/>
                    <path id="Fill-1" d="M19.81,15.454C19.81,15.335 19.75,15.275 19.75,15.156L23.736,11.221L26.77,8.181C26.77,8.181 27.9,6.989 27.84,5.379C27.365,2.458 26.948,0.133 26.948,0.133L19.274,3.173L19.215,3.173L19.393,3.71C19.393,3.71 21.356,2.935 22.011,3.71C22.07,3.769 22.189,3.829 22.308,4.187C22.487,4.783 22.784,5.975 23.26,8.598C23.379,9.195 23.141,9.552 23.022,9.731L19.512,13.248C19.393,12.354 19.393,12.652 19.512,13.248C18.679,8.241 17.311,0.073 17.311,0.073L9.578,3.233L9.697,3.829C9.697,3.829 11.66,3.054 12.314,3.769C12.374,3.889 12.493,3.948 12.611,4.246C12.79,4.843 13.087,6.035 13.563,8.658C13.682,9.433 13.266,9.85 13.266,9.85L9.875,13.308C9.042,8.241 7.733,0.133 7.733,0.133L0,3.293L0.119,3.889C0.119,3.889 2.082,3.114 2.736,3.889C3.034,4.246 3.272,4.068 5.83,19.329C5.83,19.329 6.246,21.416 4.045,23.264L4.64,23.979C4.64,23.979 10.827,19.925 10.172,15.633C10.172,15.514 10.113,15.394 10.113,15.275L14.039,11.341C14.456,13.248 14.932,15.812 15.467,19.21C15.467,19.21 15.883,21.296 13.682,23.145L14.277,23.86C14.218,23.8 20.404,19.806 19.81,15.454"/>
                </g>
            </g>
        </g>
    </g>
</svg>
