<?xml version="1.0" encoding="UTF-8" standalone="no"?><!DOCTYPE svg PUBLIC "-//W3C//DTD SVG 1.1//EN" "http://www.w3.org/Graphics/SVG/1.1/DTD/svg11.dtd"><svg width="100%" height="100%" viewBox="0 0 1177 1177" version="1.1" xmlns="http://www.w3.org/2000/svg" xmlns:xlink="http://www.w3.org/1999/xlink" xml:space="preserve" xmlns:serif="http://www.serif.com/" style="fill-rule:evenodd;clip-rule:evenodd;stroke-linejoin:round;stroke-miterlimit:2;"><path d="M1151.78,1107.27c32.995,-32.995 32.995,-86.57 0,-119.565l-962.953,-962.954c-32.995,-32.995 -86.571,-32.995 -119.566,0l-44.519,44.519c-32.995,32.995 -32.995,86.571 0,119.566l962.954,962.953c32.995,32.995 86.57,32.995 119.565,0l44.519,-44.519Z" style="fill:#3b3838;"/><path d="M1107.27,24.746c-32.995,-32.995 -86.57,-32.995 -119.565,0l-962.954,962.954c-32.995,32.995 -32.995,86.57 0,119.565l44.519,44.519c32.995,32.995 86.571,32.995 119.566,0l962.953,-962.953c32.995,-32.995 32.995,-86.571 0,-119.566l-44.519,-44.519Z" style="fill:#3b3838;"/></svg>