<?xml version="1.0" encoding="UTF-8" standalone="no"?>
<!DOCTYPE svg PUBLIC "-//W3C//DTD SVG 1.1//EN" "http://www.w3.org/Graphics/SVG/1.1/DTD/svg11.dtd">
<svg width="100%" height="100%" viewBox="0 0 128 128" version="1.1" xmlns="http://www.w3.org/2000/svg" xmlns:xlink="http://www.w3.org/1999/xlink" xml:space="preserve" xmlns:serif="http://www.serif.com/" style="fill-rule:evenodd;clip-rule:evenodd;stroke-linejoin:round;stroke-miterlimit:2;">
    <g transform="matrix(1,0,0,1,-131.795,-154.485)">
        <g transform="matrix(1.029,0,0,1.029,0.412608,-4.48033)">
            <path d="M252.072,171.513C252.072,162.115 244.442,154.485 235.044,154.485L144.707,154.485C135.309,154.485 127.679,162.115 127.679,171.513L127.679,261.85C127.679,271.248 135.309,278.878 144.707,278.878L235.044,278.878C244.442,278.878 252.072,271.248 252.072,261.85L252.072,171.513Z" style="fill:rgb(0,35,51);"/>
        </g>
        <g transform="matrix(1,0,0,1,3.82563,-3.99148)">
            <g transform="matrix(1.381,0,0,1.381,-97.5035,-47.1647)">
                <text x="168.513px" y="200.179px" style="font-family:'SFProDisplay-Bold', 'SF Pro Display';font-weight:600;font-size:72px;fill:white;">pa</text>
            </g>
            <g transform="matrix(0.670342,0,0,0.670342,52.3285,134.079)">
                <text x="168.513px" y="200.179px" style="font-family:'SFProDisplay-Bold', 'SF Pro Display';font-weight:600;font-size:72px;fill:rgb(185,185,185);">.me</text>
            </g>
        </g>
    </g>
</svg>
