<?xml version="1.0" encoding="UTF-8" standalone="no"?><!DOCTYPE svg PUBLIC "-//W3C//DTD SVG 1.1//EN" "http://www.w3.org/Graphics/SVG/1.1/DTD/svg11.dtd"><svg width="100%" height="100%" viewBox="0 0 1531 1534" version="1.1" xmlns="http://www.w3.org/2000/svg" xmlns:xlink="http://www.w3.org/1999/xlink" xml:space="preserve" xmlns:serif="http://www.serif.com/" style="fill-rule:evenodd;clip-rule:evenodd;stroke-linejoin:round;stroke-miterlimit:2;"><path d="M1530.91,735.424c0,-46.662 -37.884,-84.546 -84.546,-84.546l-1361.82,0c-46.662,0 -84.546,37.884 -84.546,84.546l0,62.959c0,46.662 37.884,84.546 84.546,84.546l1361.82,0c46.662,0 84.546,-37.884 84.546,-84.546l0,-62.959Z" style="fill:#3b3838;"/><path d="M1530.91,84.546c0,-46.662 -37.884,-84.546 -84.546,-84.546l-1361.82,0c-46.662,0 -84.546,37.884 -84.546,84.546l0,62.959c0,46.662 37.884,84.545 84.546,84.545l1361.82,0c46.662,0 84.546,-37.883 84.546,-84.545l0,-62.959Z" style="fill:#3b3838;"/><path d="M1530.91,1386.3c0,-46.662 -37.884,-84.545 -84.546,-84.545l-1361.82,0c-46.662,0 -84.546,37.883 -84.546,84.545l0,62.96c0,46.661 37.884,84.545 84.546,84.545l1361.82,0c46.662,0 84.546,-37.884 84.546,-84.545l0,-62.96Z" style="fill:#3b3838;"/></svg>