<?xml version="1.0" encoding="UTF-8" standalone="no"?><!DOCTYPE svg PUBLIC "-//W3C//DTD SVG 1.1//EN" "http://www.w3.org/Graphics/SVG/1.1/DTD/svg11.dtd"><svg width="100%" height="100%" viewBox="0 0 487 331" version="1.1" xmlns="http://www.w3.org/2000/svg" xmlns:xlink="http://www.w3.org/1999/xlink" xml:space="preserve" xmlns:serif="http://www.serif.com/" style="fill-rule:evenodd;clip-rule:evenodd;stroke-linejoin:round;stroke-miterlimit:2;"><path d="M129.063,86.252l103.167,0l0,8.218l-93.708,0l0,61.849l88.119,0l0,8.218l-88.119,0l0,67.904l94.782,0l0,8.218l-104.241,0l0,-154.407Zm112.407,0l10.963,0l48.574,67.904l49.649,-67.904l67.529,-86.252l-110.944,161.293l57.17,79.366l-11.392,0l-52.012,-72.229l-52.226,72.229l-11.177,0l57.6,-79.366l-53.73,-75.041l-0.004,0Zm127.026,8.218l0,-8.218l117.563,0l0,8.218l-54.159,0l0,146.186l-9.459,0l0,-146.186l-53.945,0Zm-368.496,-8.218l11.822,0l163.004,244.455l-67.363,-90.048l-97.578,-142.729l-0.429,142.729l-9.456,0l0,-154.407Z" style="fill-rule:nonzero;"/></svg>