<?xml version="1.0" encoding="UTF-8" standalone="no"?><!DOCTYPE svg PUBLIC "-//W3C//DTD SVG 1.1//EN" "http://www.w3.org/Graphics/SVG/1.1/DTD/svg11.dtd"><svg width="100%" height="100%" viewBox="0 0 421 430" version="1.1" xmlns="http://www.w3.org/2000/svg" xmlns:xlink="http://www.w3.org/1999/xlink" xml:space="preserve" xmlns:serif="http://www.serif.com/" style="fill-rule:evenodd;clip-rule:evenodd;stroke-linecap:round;stroke-linejoin:round;stroke-miterlimit:1.5;"><g><g><circle cx="210.417" cy="218.093" r="208.333" style="fill:none;stroke:#000;stroke-opacity:0.1;stroke-width:4.17px;"/><circle cx="210.417" cy="218.093" r="125" style="fill:none;stroke:#000;stroke-opacity:0.1;stroke-width:4.17px;"/><circle cx="210.417" cy="218.093" r="104.167" style="fill:none;stroke:#000;stroke-opacity:0.1;stroke-width:4.17px;"/><circle cx="210.417" cy="218.093" r="145.833" style="fill:none;stroke:#000;stroke-opacity:0.1;stroke-width:4.17px;"/><circle cx="210.417" cy="218.093" r="166.667" style="fill:none;stroke:#000;stroke-opacity:0.1;stroke-width:4.17px;"/><circle cx="210.417" cy="218.093" r="83.333" style="fill:none;stroke:#000;stroke-opacity:0.1;stroke-width:4.17px;"/><circle cx="210.417" cy="218.093" r="187.5" style="fill:none;stroke:#000;stroke-opacity:0.1;stroke-width:4.17px;"/></g></g><g opacity="0.25"><path d="M210.417,8.855l0,418.476" style="fill:none;stroke:#cecece;stroke-width:4.17px;"/><path d="M29.211,113.474l362.411,209.238" style="fill:none;stroke:#cecece;stroke-width:4.17px;"/><path d="M29.211,322.712l362.411,-209.238" style="fill:none;stroke:#cecece;stroke-width:4.17px;"/></g><path d="M211.31,8.283l161.776,115.532l-18.121,179.574l-143.769,62.972l-181.809,-44.394l37.992,-186.681l143.931,-127.003Z" style="fill:#1dacf5;fill-opacity:0.5;"/><g><circle cx="210.578" cy="9.774" r="9.774" style="fill:#132869;"/><circle cx="371.725" cy="123.498" r="9.774" style="fill:#132869;"/><circle cx="353.618" cy="301.724" r="9.774" style="fill:#132869;"/><circle cx="212.297" cy="364.523" r="9.774" style="fill:#132869;"/><circle cx="32.302" cy="320.347" r="9.774" style="fill:#132869;"/><circle cx="68.58" cy="133.4" r="9.774" style="fill:#132869;"/></g></svg>