<?xml version="1.0" encoding="UTF-8" standalone="no"?><!DOCTYPE svg PUBLIC "-//W3C//DTD SVG 1.1//EN" "http://www.w3.org/Graphics/SVG/1.1/DTD/svg11.dtd"><svg width="100%" height="100%" viewBox="0 0 1444 1444" version="1.1" xmlns="http://www.w3.org/2000/svg" xmlns:xlink="http://www.w3.org/1999/xlink" xml:space="preserve" xmlns:serif="http://www.serif.com/" style="fill-rule:evenodd;clip-rule:evenodd;stroke-linejoin:round;stroke-miterlimit:2;"><g id="Sun"><circle cx="721.784" cy="721.784" r="447.284" style="fill:#4c4c4c;"/><g id="Beams"><path d="M763.245,20.731c0,-11.442 -9.289,-20.731 -20.73,-20.731l-41.461,0c-11.442,0 -20.731,9.289 -20.731,20.731l0,165.725c0,11.441 9.289,20.73 20.731,20.73l41.461,0c11.441,0 20.73,-9.289 20.73,-20.73l0,-165.725Z" style="fill:#4c4c4c;"/><path d="M763.245,1257.11c0,-11.442 -9.289,-20.731 -20.73,-20.731l-41.461,0c-11.442,0 -20.731,9.289 -20.731,20.731l0,165.725c0,11.442 9.289,20.731 20.731,20.731l41.461,0c11.441,0 20.73,-9.289 20.73,-20.731l0,-165.725Z" style="fill:#4c4c4c;"/><path d="M1422.84,763.245c11.442,0 20.731,-9.289 20.731,-20.73l0,-41.461c0,-11.442 -9.289,-20.731 -20.731,-20.731l-165.725,0c-11.442,0 -20.731,9.289 -20.731,20.731l0,41.461c0,11.441 9.289,20.73 20.731,20.73l165.725,0Z" style="fill:#4c4c4c;"/><path d="M186.456,763.245c11.441,0 20.73,-9.289 20.73,-20.73l0,-41.461c0,-11.442 -9.289,-20.731 -20.73,-20.731l-165.725,0c-11.442,0 -20.731,9.289 -20.731,20.731l0,41.461c0,11.441 9.289,20.73 20.731,20.73l165.725,0Z" style="fill:#4c4c4c;"/><path d="M1246.82,255.382c8.09,-8.09 8.09,-21.227 0,-29.318l-29.318,-29.317c-8.09,-8.09 -21.227,-8.09 -29.317,0l-117.186,117.185c-8.09,8.091 -8.09,21.227 0,29.318l29.318,29.317c8.09,8.091 21.227,8.091 29.317,0l117.186,-117.185Z" style="fill:#4c4c4c;"/><path d="M372.567,1129.64c8.091,-8.09 8.091,-21.227 0,-29.317l-29.317,-29.318c-8.091,-8.09 -21.227,-8.09 -29.318,0l-117.185,117.186c-8.09,8.09 -8.09,21.227 0,29.317l29.317,29.318c8.091,8.09 21.228,8.09 29.318,0l117.185,-117.186Z" style="fill:#4c4c4c;"/><path d="M1188.19,1246.82c8.09,8.09 21.227,8.09 29.317,0l29.318,-29.318c8.09,-8.09 8.09,-21.227 0,-29.317l-117.186,-117.186c-8.09,-8.09 -21.227,-8.09 -29.317,0l-29.318,29.318c-8.09,8.09 -8.09,21.227 0,29.317l117.186,117.186Z" style="fill:#4c4c4c;"/><path d="M313.932,372.567c8.091,8.091 21.227,8.091 29.318,0l29.317,-29.317c8.091,-8.091 8.091,-21.227 0,-29.318l-117.185,-117.185c-8.09,-8.09 -21.227,-8.09 -29.318,0l-29.317,29.317c-8.09,8.091 -8.09,21.228 0,29.318l117.185,117.185Z" style="fill:#4c4c4c;"/></g></g><path id="Moon" d="M540.217,356.008c-26.88,54.324 -41.99,115.49 -41.99,180.157c0,224.695 182.424,407.119 407.119,407.119c64.667,0 125.833,-15.11 180.156,-41.99c-66.513,134.431 -205.1,226.962 -365.128,226.962c-224.695,0 -407.119,-182.424 -407.119,-407.119c0,-160.028 92.53,-298.615 226.962,-365.129Z" style="fill:#f3f3f3;"/></svg>